<svg xmlns="http://www.w3.org/2000/svg" width="146" height="41" viewBox="0 0 146 41">
  <metadata><?xpacket begin="﻿" id="W5M0MpCehiHzreSzNTczkc9d"?>
<x:xmpmeta xmlns:x="adobe:ns:meta/" x:xmptk="Adobe XMP Core 5.6-c142 79.160924, 2017/07/13-01:06:39        ">
   <rdf:RDF xmlns:rdf="http://www.w3.org/1999/02/22-rdf-syntax-ns#">
      <rdf:Description rdf:about=""/>
   </rdf:RDF>
</x:xmpmeta>
                                                                                                    
                                                                                                    
                                                                                                    
                                                                                                    
                                                                                                    
                                                                                                    
                                                                                                    
                                                                                                    
                                                                                                    
                                                                                                    
                                                                                                    
                                                                                                    
                                                                                                    
                                                                                                    
                                                                                                    
                                                                                                    
                                                                                                    
                                                                                                    
                                                                                                    
                                                                                                    
                           
<?xpacket end="w"?></metadata>
<defs>
    <style>
      .cls-1 {
        fill: #fff;
        fill-rule: evenodd;
      }
    </style>
  </defs>
  <path id="G_SPOT" data-name="G SPOT" class="cls-1" d="M410.074,62.392H409l-1.441,2.421L406.1,62.392h-1.11l2.073,3.3v2.176h0.948V65.69Zm2.888-.131a2.879,2.879,0,1,0,2.62,2.868A2.623,2.623,0,0,0,412.962,62.261Zm-0.015.807c1.017,0,1.664.8,1.664,2.053s-0.647,2.069-1.649,2.069c-1.032,0-1.68-.8-1.68-2.076A1.766,1.766,0,0,1,412.947,63.068Zm7.958-.676h-0.963v3.229c0,0.93-.162,1.561-1.256,1.561a1.145,1.145,0,0,1-1.318-1.261V62.392h-0.963v3.337a2.25,2.25,0,0,0,4.5.015V62.392Zm1.1,0v5.474h0.956V65.605h1.279a0.993,0.993,0,0,1,1.2,1.169,2.593,2.593,0,0,0,.177,1.092h1.033a2.518,2.518,0,0,1-.293-1.361,1.1,1.1,0,0,0-.817-1.246,1.33,1.33,0,0,0,.91-1.345c0-1.13-.863-1.522-1.85-1.522h-2.6Zm0.956,0.785h1.395c0.578,0,1.14.115,1.14,0.838,0,0.784-.632.876-1.264,0.876h-1.271V63.176ZM434,62.392h-0.963v2.176h-2.512V62.392h-0.964v5.474h0.964v-2.46h2.512v2.46H434V62.392Zm5.084,0h-3.953v5.474h4V67.043h-3.044V65.429h2.781V64.652h-2.781V63.2h3V62.392Zm3.412-.008h-1.024l-2.12,5.482h0.994l0.54-1.453h2.173l0.524,1.453h1.033Zm0.309,3.307h-1.673l0.856-2.307Zm6.078,1.345H446.1V62.392h-0.971v5.474h3.76v-0.83Zm3.9-4.644H448.32v0.831h1.75v4.644h0.963V63.222h1.749V62.392Zm5.054,0h-0.963v2.176H454.36V62.392H453.4v5.474h0.963v-2.46h2.513v2.46h0.963V62.392Zm5.608,0h-1.079l-1.441,2.421-1.456-2.421h-1.11l2.073,3.3v2.176h0.948V65.69Zm5.03-.131a2.879,2.879,0,1,0,2.62,2.868A2.623,2.623,0,0,0,468.474,62.261Zm-0.016.807c1.017,0,1.665.8,1.665,2.053s-0.648,2.069-1.649,2.069c-1.033,0-1.68-.8-1.68-2.076A1.766,1.766,0,0,1,468.458,63.068Zm3.5-.676v5.474h0.955V65.605h1.28a0.993,0.993,0,0,1,1.2,1.169,2.576,2.576,0,0,0,.177,1.092H476.6a2.518,2.518,0,0,1-.293-1.361,1.1,1.1,0,0,0-.817-1.246,1.329,1.329,0,0,0,.909-1.345c0-1.13-.863-1.522-1.849-1.522h-2.6Zm0.955,0.785h1.395c0.578,0,1.141.115,1.141,0.838,0,0.784-.632.876-1.264,0.876H472.91V63.176Zm9.292,1.76h-2.35v0.738h1.479a1.434,1.434,0,0,1-1.5,1.545c-1.086,0-1.733-.777-1.733-2.068s0.647-2.068,1.7-2.068a1.3,1.3,0,0,1,1.394,1.053h0.933a2.176,2.176,0,0,0-2.32-1.861,2.665,2.665,0,0,0-2.681,2.891,2.585,2.585,0,0,0,2.6,2.829,2.054,2.054,0,0,0,1.71-.784l0.147,0.654H482.2V64.937Zm3.535-2.553h-1.025l-2.119,5.482h0.994l0.54-1.453H486.3l0.524,1.453h1.032Zm0.309,3.307h-1.673l0.856-2.307Zm6.771-3.3h-0.924v4.036l-2.528-4.036h-1.009v5.474h0.909V63.837l2.558,4.029h0.994V62.392Zm2.095,0h-0.971v5.474h0.971V62.392Zm5.147,0h-4.185v0.831h2.944l-3.175,3.852v0.792h4.508v-0.83h-3.29l3.2-3.882V62.392Zm4.814,0H500.92v5.474h4V67.043h-3.044V65.429h2.782V64.652h-2.782V63.2h3V62.392Zm0.9,0v5.474h0.956V65.605h1.279a0.992,0.992,0,0,1,1.2,1.169,2.573,2.573,0,0,0,.178,1.092h1.032a2.527,2.527,0,0,1-.293-1.361,1.1,1.1,0,0,0-.817-1.246,1.33,1.33,0,0,0,.91-1.345c0-1.13-.863-1.522-1.85-1.522h-2.6Zm0.956,0.785h1.4c0.578,0,1.14.115,1.14,0.838,0,0.784-.632.876-1.264,0.876h-1.271V63.176ZM438.406,36.75a4.86,4.86,0,1,1-4.937,4.86A4.9,4.9,0,0,1,438.406,36.75Zm-33.415,4.258c0,9.522,7.29,14,15.039,14a25.2,25.2,0,0,0,9.131-1.8V39.441h-8.287v7.61a8.353,8.353,0,0,1-1.074.076c-1.956,0-5.716-1.071-5.716-6.119,0-4.551,3.453-6.31,7.366-6.31a14.328,14.328,0,0,1,7.059,1.8V28.618a23.656,23.656,0,0,0-8.67-1.606C412.319,27.012,404.991,31.18,404.991,41.008Zm42.652-5.7c0,9.331,13.044,8.26,13.044,11.013,0,0.88-.691,1.3-3.031,1.3a18.43,18.43,0,0,1-9.783-3.136v7.992A21.87,21.87,0,0,0,458.538,55c6.177,0,11.28-1.836,11.28-8.681,0-9.292-13.044-8.031-13.044-10.822,0-.727.575-1.185,2.378-1.185a16.916,16.916,0,0,1,8.9,2.562V29.23a22.008,22.008,0,0,0-9.86-2.218C452.362,27.012,447.643,29.689,447.643,35.311Zm25.09-7.686V54.393H481.6v-7h2.878c6.829,0,12.046-2.371,12.046-9.866,0-7.533-5.217-9.9-12.046-9.9h-11.74Zm15,9.9c0,1.836-1.305,2.6-3.338,2.6h-2.8V34.89h2.8C486.429,34.89,487.734,35.655,487.734,37.528Zm10.319,3.48c0,7.686,4.872,14,14.54,14s14.541-6.31,14.541-14-4.873-14-14.541-14S498.053,33.322,498.053,41.008Zm19.988,0c0,3.671-2,6-5.448,6s-5.447-2.332-5.447-6,1.994-6,5.447-6S518.041,37.337,518.041,41.008Zm9.706-13.384v7.724h7.213V54.393h8.824V35.349H551V27.624H527.747Z" transform="translate(-405 -27)"/>
</svg>
