<svg xmlns="http://www.w3.org/2000/svg" width="443" height="85" viewBox="0 0 443 85">
  <metadata><?xpacket begin="﻿" id="W5M0MpCehiHzreSzNTczkc9d"?>
<x:xmpmeta xmlns:x="adobe:ns:meta/" x:xmptk="Adobe XMP Core 5.6-c142 79.160924, 2017/07/13-01:06:39        ">
   <rdf:RDF xmlns:rdf="http://www.w3.org/1999/02/22-rdf-syntax-ns#">
      <rdf:Description rdf:about=""/>
   </rdf:RDF>
</x:xmpmeta>
                                                                                                    
                                                                                                    
                                                                                                    
                                                                                                    
                                                                                                    
                                                                                                    
                                                                                                    
                                                                                                    
                                                                                                    
                                                                                                    
                                                                                                    
                                                                                                    
                                                                                                    
                                                                                                    
                                                                                                    
                                                                                                    
                                                                                                    
                                                                                                    
                                                                                                    
                                                                                                    
                           
<?xpacket end="w"?></metadata>
<defs>
    <style>
      .cls-1 {
        fill: #fff;
        fill-rule: evenodd;
      }
    </style>
  </defs>
  <path id="G_SPOT_копия" data-name="G SPOT копия" class="cls-1" d="M840.391,291.582a14.761,14.761,0,1,1-14.978,14.759A14.87,14.87,0,0,1,840.391,291.582ZM739.005,304.509c0,28.917,22.116,42.505,45.63,42.505a76.423,76.423,0,0,0,27.7-5.458V299.748H787.2v23.111a25.366,25.366,0,0,1-3.259.232c-5.936,0-17.343-3.252-17.343-18.582,0-13.82,10.475-19.161,22.349-19.161,7.333,0,15.83,1.974,21.417,5.458V266.883a71.715,71.715,0,0,0-26.306-4.877C761.238,262.006,739.005,274.663,739.005,304.509Zm129.406-17.3c0,28.336,39.577,25.084,39.577,33.446,0,2.671-2.1,3.948-9.2,3.948-8.731,0-19.556-2.9-29.683-9.522V339.35c8.963,4.993,20.021,7.664,32.36,7.664,18.741,0,34.222-5.574,34.222-26.362,0-28.22-39.576-24.388-39.576-32.866,0-2.206,1.746-3.6,7.216-3.6a51.278,51.278,0,0,1,27.006,7.781V268.741c-8.032-4.3-19.323-6.735-29.916-6.735C882.728,262.006,868.411,270.135,868.411,287.206Zm76.124-23.342v81.292h26.888V323.9h8.731c20.716,0,36.546-7.2,36.546-29.962,0-22.878-15.83-30.078-36.546-30.078H944.535Zm45.513,30.078c0,5.574-3.958,7.9-10.127,7.9h-8.5V285.928h8.5C986.09,285.928,990.048,288.251,990.048,293.942Zm31.312,10.567c0,23.343,14.78,42.505,44.11,42.505s44.12-19.162,44.12-42.5-14.78-42.5-44.12-42.5S1021.36,281.167,1021.36,304.509Zm60.64,0c0,11.15-6.05,18.233-16.53,18.233s-16.53-7.083-16.53-18.233,6.06-18.232,16.53-18.232S1082,293.361,1082,304.509Zm29.45-40.645v23.458h21.88v57.834h26.78V287.322h21.88V263.864h-70.54Z" transform="translate(-739 -262)"/>
</svg>
